<svg width="50" height="59" viewBox="0 0 50 59" fill="none" xmlns="http://www.w3.org/2000/svg">
<path d="M14.5833 22.125V17.2083H43.75V22.125H14.5833ZM14.5833 31.9583V27.0416H43.75V31.9583H14.5833ZM14.5833 41.7916V36.875H43.75V41.7916H14.5833ZM8.33333 22.125C7.74306 22.125 7.24826 21.8894 6.84896 21.4182C6.44965 20.947 6.25 20.3632 6.25 19.6666C6.25 18.9701 6.44965 18.3863 6.84896 17.9151C7.24826 17.4439 7.74306 17.2083 8.33333 17.2083C8.92361 17.2083 9.4184 17.4439 9.81771 17.9151C10.217 18.3863 10.4167 18.9701 10.4167 19.6666C10.4167 20.3632 10.217 20.947 9.81771 21.4182C9.4184 21.8894 8.92361 22.125 8.33333 22.125ZM8.33333 31.9583C7.74306 31.9583 7.24826 31.7227 6.84896 31.2515C6.44965 30.7804 6.25 30.1965 6.25 29.5C6.25 28.8035 6.44965 28.2196 6.84896 27.7484C7.24826 27.2772 7.74306 27.0416 8.33333 27.0416C8.92361 27.0416 9.4184 27.2772 9.81771 27.7484C10.217 28.2196 10.4167 28.8035 10.4167 29.5C10.4167 30.1965 10.217 30.7804 9.81771 31.2515C9.4184 31.7227 8.92361 31.9583 8.33333 31.9583ZM8.33333 41.7916C7.74306 41.7916 7.24826 41.5561 6.84896 41.0849C6.44965 40.6137 6.25 40.0298 6.25 39.3333C6.25 38.6368 6.44965 38.0529 6.84896 37.5818C7.24826 37.1106 7.74306 36.875 8.33333 36.875C8.92361 36.875 9.4184 37.1106 9.81771 37.5818C10.217 38.0529 10.4167 38.6368 10.4167 39.3333C10.4167 40.0298 10.217 40.6137 9.81771 41.0849C9.4184 41.5561 8.92361 41.7916 8.33333 41.7916Z" fill="#FEF7FF"/>
</svg>
